<svg width="203.401" height="72.401" viewBox="0 0 203.401 72.401" xmlns="http://www.w3.org/2000/svg"><g id="svgGroup" stroke-linecap="round" fill-rule="evenodd" font-size="9pt" stroke="#00000000" stroke-width="0.25mm" fill="#000000" style="stroke:#00000000;stroke-width:0.25mm;fill:#000000"><path d="M 142.901 71.201 L 131.101 71.201 L 112.101 3.501 L 121.501 0.501 L 137.301 61.101 L 152.201 8.501 L 164.101 8.501 L 178.901 61.101 L 194.601 0.801 L 203.401 3.501 L 184.501 71.201 L 172.701 71.201 L 157.901 18.601 L 142.901 71.201 Z M 25.409 71.643 A 36.51 36.51 0 0 0 33.001 72.401 A 38.35 38.35 0 0 0 38.162 72.064 A 30.074 30.074 0 0 0 46.901 69.551 Q 53.001 66.701 57.301 61.751 Q 61.601 56.801 63.851 50.201 Q 66.101 43.601 66.101 36.101 A 48.215 48.215 0 0 0 66.022 33.323 A 41.439 41.439 0 0 0 63.851 22.101 Q 61.601 15.601 57.301 10.601 Q 53.001 5.601 46.851 2.801 A 29.925 29.925 0 0 0 40.959 0.838 A 36.42 36.42 0 0 0 33.001 0.001 A 39.35 39.35 0 0 0 26.773 0.476 A 29.661 29.661 0 0 0 15.301 4.751 Q 7.901 9.501 3.951 17.651 A 37.989 37.989 0 0 0 1.115 25.764 A 46.182 46.182 0 0 0 0.001 36.101 A 48.913 48.913 0 0 0 0.036 37.961 A 42.769 42.769 0 0 0 2.251 50.201 A 39.376 39.376 0 0 0 2.69 51.423 A 34.353 34.353 0 0 0 8.751 61.751 Q 13.001 66.701 19.101 69.551 A 29.142 29.142 0 0 0 25.409 71.643 Z M 67.601 66.601 L 72.201 59.301 A 16.858 16.858 0 0 0 76.271 62.416 A 19.43 19.43 0 0 0 77.001 62.801 A 13.114 13.114 0 0 0 80.876 64.06 A 11.941 11.941 0 0 0 82.701 64.201 A 10.741 10.741 0 0 0 86.208 63.653 A 8.936 8.936 0 0 0 90.301 60.751 Q 93.101 57.301 93.101 49.101 L 93.101 1.201 L 102.601 1.201 L 102.601 48.101 A 47.346 47.346 0 0 1 102.174 54.698 Q 101.082 62.432 97.201 66.601 A 17.93 17.93 0 0 1 85.408 72.286 A 24.68 24.68 0 0 1 83.001 72.401 A 23.443 23.443 0 0 1 74.923 71.018 A 22.405 22.405 0 0 1 74.351 70.801 A 22.827 22.827 0 0 1 70.429 68.818 A 18.183 18.183 0 0 1 67.601 66.601 Z M 33.001 64.201 A 26.517 26.517 0 0 0 38.949 63.566 A 19.316 19.316 0 0 0 45.901 60.501 A 22.47 22.47 0 0 0 53.226 51.63 A 27.252 27.252 0 0 0 53.751 50.451 A 34.108 34.108 0 0 0 56.073 41.522 A 43.503 43.503 0 0 0 56.401 36.101 Q 56.401 30.701 54.801 25.701 A 29.735 29.735 0 0 0 50.661 17.374 A 28.121 28.121 0 0 0 50.201 16.751 Q 47.201 12.801 42.851 10.501 A 19.921 19.921 0 0 0 35.434 8.319 A 24.578 24.578 0 0 0 33.001 8.201 A 24.086 24.086 0 0 0 26.508 9.041 A 19.545 19.545 0 0 0 20.451 11.901 A 23.148 23.148 0 0 0 12.85 21.027 A 27.785 27.785 0 0 0 12.451 21.901 A 32.793 32.793 0 0 0 9.997 31.088 A 41.257 41.257 0 0 0 9.701 36.101 Q 9.701 41.501 11.251 46.551 A 29.379 29.379 0 0 0 15.431 55.096 A 27.923 27.923 0 0 0 15.801 55.601 Q 18.801 59.601 23.151 61.901 A 19.921 19.921 0 0 0 30.568 64.082 A 24.578 24.578 0 0 0 33.001 64.201 Z" vector-effect="non-scaling-stroke"/></g></svg>